<mxfile host="app.diagrams.net" modified="2022-03-10T23:11:17.982Z" agent="5.0 (Windows NT 6.1; Win64; x64) AppleWebKit/537.36 (KHTML, like Gecko) Chrome/99.0.4844.51 Safari/537.36" etag="k-D_Ln7BGx-a4v453mS5" version="17.1.1" type="github">
  <diagram id="gChGrbSCKXLXu62mFakp" name="Page-1">
    <mxGraphModel dx="347" dy="193" grid="0" gridSize="10" guides="1" tooltips="1" connect="1" arrows="1" fold="1" page="0" pageScale="1" pageWidth="827" pageHeight="1169" math="0" shadow="0">
      <root>
        <mxCell id="0" />
        <mxCell id="1" parent="0" />
        <mxCell id="eOybXmLH0Cuv-CmlZ1wJ-30" value="" style="edgeStyle=orthogonalEdgeStyle;rounded=0;jumpStyle=line;orthogonalLoop=1;jettySize=auto;html=1;labelBackgroundColor=none;labelBorderColor=none;fontSize=10;fontColor=#000000;" parent="1" source="eOybXmLH0Cuv-CmlZ1wJ-3" target="eOybXmLH0Cuv-CmlZ1wJ-7" edge="1">
          <mxGeometry relative="1" as="geometry" />
        </mxCell>
        <mxCell id="eOybXmLH0Cuv-CmlZ1wJ-3" value="&lt;br&gt;(data_evento)" style="html=1;strokeWidth=2;shape=manualInput;whiteSpace=wrap;rounded=1;size=26;arcSize=11;" parent="1" vertex="1">
          <mxGeometry x="95.5" y="334" width="100" height="60" as="geometry" />
        </mxCell>
        <mxCell id="eOybXmLH0Cuv-CmlZ1wJ-18" value="" style="edgeStyle=orthogonalEdgeStyle;rounded=0;orthogonalLoop=1;jettySize=auto;html=1;fontSize=10;" parent="1" source="eOybXmLH0Cuv-CmlZ1wJ-4" target="eOybXmLH0Cuv-CmlZ1wJ-6" edge="1">
          <mxGeometry relative="1" as="geometry" />
        </mxCell>
        <mxCell id="eOybXmLH0Cuv-CmlZ1wJ-4" value="&lt;span style=&quot;font-size: 10px&quot;&gt;Inicio &lt;br&gt;Cadastro de eventos&lt;/span&gt;" style="strokeWidth=2;html=1;shape=mxgraph.flowchart.start_1;whiteSpace=wrap;fontSize=10;" parent="1" vertex="1">
          <mxGeometry x="88" y="139" width="115" height="69" as="geometry" />
        </mxCell>
        <mxCell id="eOybXmLH0Cuv-CmlZ1wJ-19" value="" style="edgeStyle=orthogonalEdgeStyle;rounded=0;orthogonalLoop=1;jettySize=auto;html=1;fontSize=10;entryX=0.497;entryY=0.189;entryDx=0;entryDy=0;entryPerimeter=0;" parent="1" source="eOybXmLH0Cuv-CmlZ1wJ-6" target="eOybXmLH0Cuv-CmlZ1wJ-3" edge="1">
          <mxGeometry relative="1" as="geometry">
            <mxPoint x="145" y="342" as="targetPoint" />
            <Array as="points">
              <mxPoint x="145" y="325" />
              <mxPoint x="145" y="325" />
            </Array>
          </mxGeometry>
        </mxCell>
        <mxCell id="eOybXmLH0Cuv-CmlZ1wJ-6" value="Olá! Bem vindo ao cadastro de eventos.&lt;br&gt;Por favor, digite a data do evento." style="strokeWidth=2;html=1;shape=mxgraph.flowchart.display;whiteSpace=wrap;fontSize=10;" parent="1" vertex="1">
          <mxGeometry x="84" y="240" width="123" height="65" as="geometry" />
        </mxCell>
        <mxCell id="eOybXmLH0Cuv-CmlZ1wJ-20" value="SIM" style="edgeStyle=orthogonalEdgeStyle;rounded=0;orthogonalLoop=1;jettySize=auto;fontSize=10;labelBorderColor=none;labelPosition=center;verticalLabelPosition=top;align=center;verticalAlign=bottom;html=1;" parent="1" source="eOybXmLH0Cuv-CmlZ1wJ-7" target="eOybXmLH0Cuv-CmlZ1wJ-10" edge="1">
          <mxGeometry relative="1" as="geometry" />
        </mxCell>
        <mxCell id="eOybXmLH0Cuv-CmlZ1wJ-23" value="NÂO" style="edgeStyle=orthogonalEdgeStyle;rounded=0;jumpStyle=line;orthogonalLoop=1;jettySize=auto;html=1;labelBorderColor=none;fontSize=10;fontColor=#000000;labelBackgroundColor=none;labelPosition=right;verticalLabelPosition=middle;align=left;verticalAlign=middle;" parent="1" source="eOybXmLH0Cuv-CmlZ1wJ-7" target="eOybXmLH0Cuv-CmlZ1wJ-22" edge="1">
          <mxGeometry relative="1" as="geometry" />
        </mxCell>
        <mxCell id="eOybXmLH0Cuv-CmlZ1wJ-7" value="&lt;p style=&quot;line-height: 1&quot;&gt;&lt;font style=&quot;font-size: 10px&quot;&gt;&amp;nbsp; &amp;nbsp; A data atual é maior que data_evento?&amp;nbsp;&lt;/font&gt;&lt;/p&gt;" style="strokeWidth=2;html=1;shape=mxgraph.flowchart.decision;whiteSpace=wrap;" parent="1" vertex="1">
          <mxGeometry x="86" y="423" width="118.5" height="105" as="geometry" />
        </mxCell>
        <mxCell id="bL8-K7mxWeau8P830rif-17" value="" style="edgeStyle=orthogonalEdgeStyle;rounded=0;orthogonalLoop=1;jettySize=auto;html=1;fontSize=10;" edge="1" parent="1" source="eOybXmLH0Cuv-CmlZ1wJ-10" target="bL8-K7mxWeau8P830rif-16">
          <mxGeometry relative="1" as="geometry" />
        </mxCell>
        <mxCell id="eOybXmLH0Cuv-CmlZ1wJ-10" value="&lt;font style=&quot;font-size: 12px&quot;&gt;Data inválida! Cadastro não permitido.&lt;/font&gt;" style="strokeWidth=2;html=1;shape=mxgraph.flowchart.display;whiteSpace=wrap;fontSize=10;" parent="1" vertex="1">
          <mxGeometry x="275.75" y="445.5" width="100" height="60" as="geometry" />
        </mxCell>
        <mxCell id="eOybXmLH0Cuv-CmlZ1wJ-26" value="" style="edgeStyle=orthogonalEdgeStyle;rounded=0;jumpStyle=line;orthogonalLoop=1;jettySize=auto;html=1;labelBackgroundColor=none;labelBorderColor=none;fontSize=10;fontColor=#000000;entryX=0.498;entryY=0.185;entryDx=0;entryDy=0;entryPerimeter=0;" parent="1" source="eOybXmLH0Cuv-CmlZ1wJ-22" target="eOybXmLH0Cuv-CmlZ1wJ-24" edge="1">
          <mxGeometry relative="1" as="geometry" />
        </mxCell>
        <mxCell id="eOybXmLH0Cuv-CmlZ1wJ-22" value="&lt;font color=&quot;#000000&quot;&gt;&amp;nbsp;Por favor, digite sua idade.&lt;/font&gt;" style="strokeWidth=2;html=1;shape=mxgraph.flowchart.display;whiteSpace=wrap;labelBackgroundColor=none;labelBorderColor=none;fontSize=12;fillColor=none;fontColor=#FFFFFF;" parent="1" vertex="1">
          <mxGeometry x="95.25" y="564.5" width="100" height="60" as="geometry" />
        </mxCell>
        <mxCell id="eOybXmLH0Cuv-CmlZ1wJ-27" value="" style="edgeStyle=orthogonalEdgeStyle;rounded=0;jumpStyle=line;orthogonalLoop=1;jettySize=auto;html=1;labelBackgroundColor=none;labelBorderColor=none;fontSize=10;fontColor=#000000;" parent="1" source="eOybXmLH0Cuv-CmlZ1wJ-24" edge="1">
          <mxGeometry relative="1" as="geometry">
            <mxPoint x="145.27027027027032" y="762.5" as="targetPoint" />
          </mxGeometry>
        </mxCell>
        <mxCell id="eOybXmLH0Cuv-CmlZ1wJ-24" value="&lt;br&gt;(idade)" style="html=1;strokeWidth=2;shape=manualInput;whiteSpace=wrap;rounded=1;size=26;arcSize=11;" parent="1" vertex="1">
          <mxGeometry x="95.25" y="663.5" width="100" height="60" as="geometry" />
        </mxCell>
        <mxCell id="eOybXmLH0Cuv-CmlZ1wJ-32" value="SIM" style="edgeStyle=orthogonalEdgeStyle;rounded=0;jumpStyle=line;orthogonalLoop=1;jettySize=auto;html=1;labelBackgroundColor=none;labelBorderColor=none;fontSize=10;fontColor=#000000;labelPosition=center;verticalLabelPosition=top;align=center;verticalAlign=bottom;" parent="1" source="eOybXmLH0Cuv-CmlZ1wJ-28" target="eOybXmLH0Cuv-CmlZ1wJ-31" edge="1">
          <mxGeometry relative="1" as="geometry" />
        </mxCell>
        <mxCell id="eOybXmLH0Cuv-CmlZ1wJ-34" value="Não" style="edgeStyle=orthogonalEdgeStyle;rounded=0;jumpStyle=line;orthogonalLoop=1;jettySize=auto;html=1;labelBackgroundColor=none;labelBorderColor=none;fontSize=11;fontColor=#000000;labelPosition=right;verticalLabelPosition=middle;align=left;verticalAlign=middle;" parent="1" source="eOybXmLH0Cuv-CmlZ1wJ-28" target="eOybXmLH0Cuv-CmlZ1wJ-33" edge="1">
          <mxGeometry relative="1" as="geometry" />
        </mxCell>
        <mxCell id="eOybXmLH0Cuv-CmlZ1wJ-28" value="&lt;font style=&quot;font-size: 10px&quot;&gt;&amp;nbsp; &amp;nbsp; idade é menor que 18 anos ?&lt;/font&gt;" style="strokeWidth=2;html=1;shape=mxgraph.flowchart.decision;whiteSpace=wrap;" parent="1" vertex="1">
          <mxGeometry x="98" y="764" width="94.5" height="100" as="geometry" />
        </mxCell>
        <mxCell id="bL8-K7mxWeau8P830rif-18" value="" style="edgeStyle=orthogonalEdgeStyle;rounded=0;orthogonalLoop=1;jettySize=auto;html=1;fontSize=10;" edge="1" parent="1" source="eOybXmLH0Cuv-CmlZ1wJ-31" target="bL8-K7mxWeau8P830rif-15">
          <mxGeometry relative="1" as="geometry" />
        </mxCell>
        <mxCell id="eOybXmLH0Cuv-CmlZ1wJ-31" value="&lt;font style=&quot;font-size: 11px&quot;&gt;&amp;nbsp; Evento não permitido para menores de 18 anos.&lt;/font&gt;" style="strokeWidth=2;html=1;shape=mxgraph.flowchart.display;whiteSpace=wrap;fontSize=10;" parent="1" vertex="1">
          <mxGeometry x="275.75" y="784" width="100" height="60" as="geometry" />
        </mxCell>
        <mxCell id="eOybXmLH0Cuv-CmlZ1wJ-36" value="" style="edgeStyle=orthogonalEdgeStyle;rounded=0;jumpStyle=line;orthogonalLoop=1;jettySize=auto;html=1;labelBackgroundColor=none;labelBorderColor=none;fontSize=11;fontColor=#000000;entryX=0.499;entryY=0.192;entryDx=0;entryDy=0;entryPerimeter=0;" parent="1" source="eOybXmLH0Cuv-CmlZ1wJ-33" target="eOybXmLH0Cuv-CmlZ1wJ-35" edge="1">
          <mxGeometry relative="1" as="geometry" />
        </mxCell>
        <mxCell id="eOybXmLH0Cuv-CmlZ1wJ-33" value="&amp;nbsp; Por favor, digite seu nome." style="strokeWidth=2;html=1;shape=mxgraph.flowchart.display;whiteSpace=wrap;labelBackgroundColor=none;labelBorderColor=none;fontSize=11;fontColor=#000000;fillColor=none;" parent="1" vertex="1">
          <mxGeometry x="95" y="904" width="100" height="60" as="geometry" />
        </mxCell>
        <mxCell id="eOybXmLH0Cuv-CmlZ1wJ-38" value="" style="edgeStyle=orthogonalEdgeStyle;rounded=0;jumpStyle=line;orthogonalLoop=1;jettySize=auto;html=1;labelBackgroundColor=none;labelBorderColor=none;fontSize=11;fontColor=#000000;" parent="1" source="eOybXmLH0Cuv-CmlZ1wJ-35" target="eOybXmLH0Cuv-CmlZ1wJ-37" edge="1">
          <mxGeometry relative="1" as="geometry" />
        </mxCell>
        <mxCell id="eOybXmLH0Cuv-CmlZ1wJ-35" value="(nome_particip)" style="html=1;strokeWidth=2;shape=manualInput;whiteSpace=wrap;rounded=1;size=26;arcSize=11;labelBackgroundColor=none;labelBorderColor=none;fontSize=11;fontColor=#000000;fillColor=none;" parent="1" vertex="1">
          <mxGeometry x="95" y="1004" width="100" height="60" as="geometry" />
        </mxCell>
        <mxCell id="bL8-K7mxWeau8P830rif-3" value="" style="edgeStyle=orthogonalEdgeStyle;rounded=0;orthogonalLoop=1;jettySize=auto;html=1;" edge="1" parent="1" source="eOybXmLH0Cuv-CmlZ1wJ-37" target="bL8-K7mxWeau8P830rif-2">
          <mxGeometry relative="1" as="geometry" />
        </mxCell>
        <mxCell id="eOybXmLH0Cuv-CmlZ1wJ-37" value="Adicionar nome_particip à Lista e contar Nº_participantes&lt;br&gt;&amp;nbsp;" style="rounded=1;whiteSpace=wrap;html=1;absoluteArcSize=1;arcSize=14;strokeWidth=2;labelBackgroundColor=none;labelBorderColor=none;fontSize=11;fontColor=#000000;fillColor=none;" parent="1" vertex="1">
          <mxGeometry x="87" y="1106" width="116" height="65" as="geometry" />
        </mxCell>
        <mxCell id="bL8-K7mxWeau8P830rif-7" value="SIM" style="edgeStyle=orthogonalEdgeStyle;rounded=0;orthogonalLoop=1;jettySize=auto;html=1;fontSize=10;labelPosition=center;verticalLabelPosition=top;align=center;verticalAlign=bottom;" edge="1" parent="1" source="bL8-K7mxWeau8P830rif-2" target="bL8-K7mxWeau8P830rif-6">
          <mxGeometry relative="1" as="geometry" />
        </mxCell>
        <mxCell id="bL8-K7mxWeau8P830rif-9" value="Não" style="edgeStyle=orthogonalEdgeStyle;rounded=0;orthogonalLoop=1;jettySize=auto;html=1;fontSize=10;labelPosition=right;verticalLabelPosition=middle;align=left;verticalAlign=middle;" edge="1" parent="1" source="bL8-K7mxWeau8P830rif-2" target="bL8-K7mxWeau8P830rif-8">
          <mxGeometry relative="1" as="geometry" />
        </mxCell>
        <mxCell id="bL8-K7mxWeau8P830rif-2" value="&lt;font style=&quot;font-size: 10px&quot;&gt;&amp;nbsp; &amp;nbsp; &amp;nbsp; &amp;nbsp;Nº_participantes é menor que 100 ?&lt;/font&gt;" style="strokeWidth=2;html=1;shape=mxgraph.flowchart.decision;whiteSpace=wrap;" vertex="1" parent="1">
          <mxGeometry x="79" y="1206" width="133" height="138" as="geometry" />
        </mxCell>
        <mxCell id="bL8-K7mxWeau8P830rif-14" value="" style="edgeStyle=orthogonalEdgeStyle;rounded=0;orthogonalLoop=1;jettySize=auto;html=1;fontSize=10;" edge="1" parent="1" source="bL8-K7mxWeau8P830rif-6" target="bL8-K7mxWeau8P830rif-13">
          <mxGeometry relative="1" as="geometry" />
        </mxCell>
        <mxCell id="bL8-K7mxWeau8P830rif-6" value="Cadastro finalizado!" style="strokeWidth=2;html=1;shape=mxgraph.flowchart.display;whiteSpace=wrap;fontSize=10;" vertex="1" parent="1">
          <mxGeometry x="275.75" y="1245" width="98.25" height="58" as="geometry" />
        </mxCell>
        <mxCell id="bL8-K7mxWeau8P830rif-12" value="" style="edgeStyle=orthogonalEdgeStyle;rounded=0;orthogonalLoop=1;jettySize=auto;html=1;fontSize=10;" edge="1" parent="1" source="bL8-K7mxWeau8P830rif-8" target="bL8-K7mxWeau8P830rif-11">
          <mxGeometry relative="1" as="geometry" />
        </mxCell>
        <mxCell id="bL8-K7mxWeau8P830rif-8" value="&amp;nbsp; &amp;nbsp; &amp;nbsp; &amp;nbsp;Limite de vagas excedido!&lt;br&gt;&amp;nbsp; Não será possível realizar o cadastro." style="strokeWidth=2;html=1;shape=mxgraph.flowchart.display;whiteSpace=wrap;fontSize=10;" vertex="1" parent="1">
          <mxGeometry x="78" y="1386" width="136" height="54" as="geometry" />
        </mxCell>
        <mxCell id="bL8-K7mxWeau8P830rif-11" value="Fim" style="strokeWidth=2;html=1;shape=mxgraph.flowchart.terminator;whiteSpace=wrap;fontSize=10;" vertex="1" parent="1">
          <mxGeometry x="96" y="1502" width="100" height="60" as="geometry" />
        </mxCell>
        <mxCell id="bL8-K7mxWeau8P830rif-13" value="&lt;span&gt;Retornar ao Inicio.&lt;/span&gt;" style="strokeWidth=2;html=1;shape=mxgraph.flowchart.start_2;whiteSpace=wrap;fontSize=10;" vertex="1" parent="1">
          <mxGeometry x="468" y="1234" width="87" height="81" as="geometry" />
        </mxCell>
        <mxCell id="bL8-K7mxWeau8P830rif-15" value="&lt;span&gt;Retornar ao Inicio.&lt;/span&gt;" style="strokeWidth=2;html=1;shape=mxgraph.flowchart.start_2;whiteSpace=wrap;fontSize=10;" vertex="1" parent="1">
          <mxGeometry x="468" y="774" width="87" height="81" as="geometry" />
        </mxCell>
        <mxCell id="bL8-K7mxWeau8P830rif-16" value="&lt;span&gt;Retornar ao Inicio.&lt;/span&gt;" style="strokeWidth=2;html=1;shape=mxgraph.flowchart.start_2;whiteSpace=wrap;fontSize=10;" vertex="1" parent="1">
          <mxGeometry x="468" y="435" width="87" height="81" as="geometry" />
        </mxCell>
      </root>
    </mxGraphModel>
  </diagram>
</mxfile>
